<svg width="200" height="96" viewBox="0 0 200 96" fill="none" xmlns="http://www.w3.org/2000/svg">
<path d="M192.051 0C193.058 7.76511 193.804 14.2826 194.771 20.7658C195.636 26.5598 197.024 32.2853 197.684 38.102C198.703 47.0749 200.086 56.0421 197.707 65.0947C194.14 78.6595 185.821 87.5811 172.603 92.1217C162.958 95.4317 153.131 96.7933 143.015 95.1753C140.403 94.7594 137.768 94.6853 135.151 94.0644C120.909 90.6689 111.634 81.7872 106.166 68.4845C103.907 62.9925 102.866 57.2613 102.609 51.3819C102.433 47.411 101.318 43.5655 101.506 39.5263C101.654 36.2903 101.813 33.1399 103.144 29.8868C104.686 35.037 105.033 40.1074 104.868 45.2518C104.641 52.339 105.927 59.1698 108.288 65.8582C112.26 77.1042 120.141 84.3907 131.395 87.4728C144.75 91.1247 158.133 91.3355 171.556 86.6411C186.777 81.32 194.379 66.8438 194.965 54.0994C195.431 43.9814 193.912 34.097 192.006 24.2353C190.532 16.6013 190.304 8.96149 192.057 0.0170911L192.051 0Z" fill="black"/>
<path d="M74.1302 69.6182C67.433 77.3035 58.6077 80.8471 48.8095 81.8954C37.1107 83.143 25.9696 81.1662 15.4373 75.4463C4.50675 69.5099 -1.84903 53.9626 0.478199 41.9019C1.70156 35.5725 3.55652 29.545 6.06583 23.6086C8.89378 16.9146 9.56521 9.73626 9.25225 2.48389C9.63349 1.95976 10.0033 1.99394 10.3504 2.51807C10.3277 9.10959 11.2722 15.7182 9.51969 22.2641C8.87102 24.674 7.91509 26.9015 6.83398 29.0949C2.26487 38.3754 1.82105 48.0149 5.15542 57.6031C9.41157 69.8347 19.5228 75.0076 31.2955 77.6454C41.0312 79.8273 50.397 77.0529 59.7344 74.962C64.7871 73.8283 68.6108 70.0626 72.8841 67.3052C74.9154 67.2083 74.9837 68.1654 74.1245 69.6182H74.1302Z" fill="black"/>
<path d="M167.419 64.0293C167.311 67.1627 163.209 70.8544 160.096 70.6208C156.597 70.3588 153.82 67.6242 153.866 64.4965C153.923 60.725 157.115 57.4948 160.677 57.5973C164.108 57.6942 167.522 60.9586 167.419 64.035V64.0293Z" fill="black"/>
<path d="M40.047 48.2086C40.1722 50.7267 37.2817 53.3531 34.3741 53.3588C31.7965 53.3588 28.9002 50.6356 28.6271 47.9523C28.3142 44.8645 30.6983 42.5685 34.4253 42.3691C37.4922 42.2096 39.865 44.6708 40.047 48.2029V48.2086Z" fill="black"/>
<path d="M74.1291 69.6182C74.1291 68.6269 73.8332 67.7894 72.8887 67.3052C80.2061 57.5233 82.8519 46.4311 82.1578 34.3818C82.0724 32.8835 82.226 31.3737 82.2659 29.8697C85.9132 32.1998 82.4195 36.1764 84.3484 38.9053C84.0355 50.1741 81.7822 60.7991 74.1291 69.6239V69.6182Z" fill="black"/>
<path d="M84.349 38.8996C82.9037 37.7716 83.3931 36.1536 83.2736 34.6838C83.137 33.0373 83.7857 31.22 82.2664 29.8641C82.1868 26.8617 82.1071 23.8651 82.0274 20.8627C81.6291 19.6834 80.9919 18.3959 83.1939 18.4984C84.8156 25.2267 84.7018 32.0574 84.349 38.8996Z" fill="black"/>
</svg>
