<?xml version="1.0" standalone="no"?>
<!DOCTYPE svg PUBLIC "-//W3C//DTD SVG 20010904//EN"
 "http://www.w3.org/TR/2001/REC-SVG-20010904/DTD/svg10.dtd">
<svg version="1.0" xmlns="http://www.w3.org/2000/svg"
 width="562.000000pt" height="860.000000pt" viewBox="0 0 562.000000 860.000000"
 preserveAspectRatio="xMidYMid meet">

<g transform="translate(0.000000,860.000000) scale(0.100000,-0.100000)"
fill="#000000" stroke="none">
<path d="M2501 8569 c-441 -39 -896 -195 -1276 -437 -327 -208 -673 -560 -880
-892 -131 -212 -253 -484 -314 -704 l-31 -109 0 -2145 0 -2144 31 -107 c282
-967 1075 -1724 2054 -1962 240 -58 356 -69 725 -69 281 0 357 3 468 20 1092
160 2003 953 2311 2011 l31 107 0 2145 0 2145 -35 121 c-89 312 -247 623 -459
906 -123 165 -392 433 -558 556 -437 324 -928 511 -1463 558 -138 12 -466 12
-604 0z m524 -619 c1025 -88 1896 -769 2231 -1745 44 -128 77 -257 106 -420
l23 -130 0 -1370 0 -1370 -23 -129 c-49 -280 -115 -485 -237 -731 -139 -283
-291 -492 -521 -715 -207 -201 -408 -343 -659 -465 -231 -112 -422 -176 -660
-220 -737 -135 -1471 44 -2065 503 -197 153 -439 417 -580 632 -134 205 -274
529 -335 770 -77 308 -77 310 -72 1800 3 1278 4 1318 24 1425 86 456 234 802
492 1145 297 397 730 715 1198 880 343 122 719 170 1078 140z"/>
<path d="M1430 6146 l0 -73 63 -7 c102 -12 244 -44 285 -65 49 -25 97 -79 114
-128 17 -51 25 -3023 8 -3123 -25 -143 -91 -194 -303 -230 -66 -11 -130 -20
-143 -20 -23 0 -24 -2 -24 -75 l0 -75 830 0 830 0 0 78 0 78 -147 17 c-160 19
-283 47 -347 79 -63 31 -123 96 -149 158 -22 55 -22 57 -25 748 l-3 692 409 0
c343 0 416 -2 454 -16 125 -42 194 -166 255 -459 l9 -40 72 -3 72 -3 0 611 0
610 -75 0 c-67 0 -75 -2 -75 -19 0 -43 -61 -255 -91 -316 -34 -70 -95 -134
-156 -162 -34 -16 -80 -18 -455 -21 l-418 -3 0 831 0 831 518 -4 c437 -3 525
-6 570 -19 197 -60 333 -188 449 -423 36 -72 102 -235 118 -292 6 -20 13 -23
62 -23 l56 0 -7 188 c-3 103 -9 314 -12 470 l-7 282 -1368 0 -1369 0 0 -74z"/>
</g>
</svg>
