<svg width="200" height="79" viewBox="0 0 200 79" fill="none" xmlns="http://www.w3.org/2000/svg">
<path d="M90.2195 15.5297C91.1718 25.0752 91.5719 34.5812 89.1489 44.0196C86.3202 55.0414 80.1331 63.8038 70.8919 70.1825C64.4963 74.5946 57.0751 76.8372 49.2877 77.4627C44.6108 77.8402 39.9057 77.9191 35.2287 77.4288C21.4232 75.9919 10.9762 69.2809 3.85367 57.3687C1.37432 53.2215 0.427658 48.6233 0.174088 43.9408C-0.293607 35.3137 0.174079 26.6868 1.66169 18.1837C2.40549 13.9406 1.96033 9.53408 3.50429 5.41498C6.82887 6.41799 4.79469 9.08893 5.02572 10.9146C5.3131 13.2137 5.57794 15.6649 4.71016 17.9808C4.61437 25.4752 4.3777 32.9697 4.46223 40.4584C4.65381 57.3518 17.1689 70.3909 34.1074 72.1208C45.8786 73.3211 56.7709 71.1347 67.2405 65.7759C74.8419 61.8879 79.626 55.7741 82.804 48.0768C86.3709 39.4442 87.1936 30.3382 87.7458 21.1702C87.8811 18.9275 87.9994 16.6848 88.1234 14.4421C89.3574 13.7828 89.6561 14.9155 90.2252 15.5353L90.2195 15.5297Z" fill="black"/>
<path d="M109.502 40.3233L109.304 38.5033C108.628 30.6764 108.639 22.8494 109.299 15.0226C108.978 14.0421 109.073 13.0899 109.473 12.1489C112.009 12.2052 110.972 14.1774 111.079 15.372C111.423 19.1587 110.612 22.996 111.558 26.7601C112.122 28.4506 112.122 30.1691 111.851 31.9103C112.635 33.4937 111.699 35.3984 112.792 36.9255C113.046 37.2128 113.085 37.5284 112.899 37.8721C113.722 38.9202 112.99 40.374 113.824 41.4164C114.111 41.67 114.19 41.9742 114.049 42.3292C115.159 47.395 115.649 52.7539 120.456 56.101C128.283 65.9846 139.074 70.2108 151.093 71.8899C158.948 72.9887 166.808 73.2141 174.314 69.9065C187.426 64.1251 194.38 54.1569 194.943 39.7542C195.394 28.2928 193.461 16.9046 194.025 5.44328C194.098 3.95004 194.036 2.45677 194.036 0.484558C195.648 1.76368 195.574 3.31339 195.755 4.55307C197.564 17.1865 199.265 29.8254 198.995 42.6448C198.713 55.9544 192.154 65.5507 180.918 71.7378C163.681 81.2326 146.151 79.6717 129.297 70.746C123.054 67.444 118.016 62.0852 114.939 55.3628C114.855 54.7148 114.438 54.2696 114.015 53.8301L113.97 53.7399C113.271 53.1876 113.531 52.1678 112.911 51.5818C112.623 51.4128 112.544 51.1761 112.674 50.8662C112.325 49.9871 112.443 48.9334 111.694 48.1952C110.713 47.2598 111.649 45.7046 110.572 44.803C110.296 44.6114 110.251 44.3748 110.426 44.093C109.783 42.9097 110.414 41.4221 109.507 40.3064L109.502 40.3233Z" fill="black"/>
<path d="M38.475 47.6935C34.739 47.6766 31.8765 45.0001 31.9385 41.5741C32.0005 38.3284 34.6658 35.7532 38.0185 35.7024C42.0925 35.6405 45.2537 38.2945 45.2312 41.7487C45.2086 45.0169 42.1489 47.7104 38.4806 47.6991L38.475 47.6935Z" fill="black"/>
<path d="M167.072 41.8842C167.06 45.4173 164.299 47.7782 160.259 47.6937C156.951 47.6261 154.134 44.8876 154.106 41.7152C154.072 38.1708 156.698 35.7985 160.744 35.7083C164.542 35.6238 167.083 38.1089 167.072 41.8842Z" fill="black"/>
<path d="M120.451 56.1008C119.358 56.0389 118.073 56.236 117.499 55.047C115.56 51.0294 112.749 47.2314 114.045 42.3291C116.237 46.8933 117.617 51.8352 120.451 56.1008Z" fill="black"/>
<path d="M111.553 26.7657C109.654 24.1455 110.933 21.1534 110.556 18.3529C110.274 16.2736 111.316 13.9633 109.474 12.1545C109.327 10.4866 109.299 8.82422 110.094 7.00415C112.308 10.1259 111.254 13.5575 111.502 16.7356C111.762 20.0602 111.559 23.4242 111.559 26.7657H111.553Z" fill="black"/>
<path d="M109.295 15.0283C109.295 22.8551 109.295 30.6763 109.301 38.5088C107.582 30.6819 107.689 22.8551 109.295 15.0283Z" fill="black"/>
<path d="M4.70747 17.9752C4.62858 14.9944 4.54406 12.0192 4.46517 9.03838C4.43137 7.75362 4.67929 6.39551 3.50724 5.40941C3.27057 3.76402 3.31566 2.18634 5.15827 0C5.33295 6.60972 5.88516 12.2896 4.70747 17.9752Z" fill="black"/>
<path d="M90.2195 15.5299C89.5207 15.1636 88.822 14.8029 88.1177 14.4366C87.7683 11.7037 87.6894 8.98216 88.3769 5.36456C89.949 9.16248 90.535 12.2504 90.2138 15.5243L90.2195 15.5299Z" fill="black"/>
<path d="M112.791 36.9254C111.106 35.5111 111.833 33.6458 111.85 31.9103C112.966 33.4317 112.853 35.1842 112.791 36.9254Z" fill="black"/>
<path d="M113.819 41.4164C112.568 40.481 112.822 39.1511 112.895 37.872C113.712 38.9201 113.972 40.1147 113.819 41.4164Z" fill="black"/>
<path d="M109.503 40.3232C110.866 41.3319 110.539 42.7462 110.421 44.1099C109.407 43.0167 109.328 41.7038 109.503 40.3232Z" fill="black"/>
<path d="M110.56 44.8199C111.884 45.637 111.692 46.9499 111.681 48.2065C110.723 47.2711 110.391 46.1272 110.56 44.8199Z" fill="black"/>
<path d="M111.682 48.2121C112.741 48.832 112.798 49.8181 112.663 50.8831C111.783 50.1956 111.626 49.2433 111.682 48.2121Z" fill="black"/>
<path d="M112.905 51.593C113.756 52.072 113.965 52.8608 113.965 53.7511C113.182 53.2439 112.81 52.5284 112.905 51.593Z" fill="black"/>
<path d="M114.01 53.8471C114.607 54.1852 114.906 54.698 114.934 55.3798C114.32 55.053 114.027 54.5346 114.01 53.8471Z" fill="black"/>
</svg>
